<?xml version="1.0" encoding="utf-8"?>
<!-- Generator: Adobe Illustrator 27.2.0, SVG Export Plug-In . SVG Version: 6.00 Build 0)  -->
<svg version="1.1" id="icons_1_" xmlns="http://www.w3.org/2000/svg" xmlns:xlink="http://www.w3.org/1999/xlink" x="0px" y="0px"
	 viewBox="0 0 51.2 57.4" style="enable-background:new 0 0 51.2 57.4;" xml:space="preserve">
<style type="text/css">
	.st0{display:none;}
	.st1{display:inline;}
	.st2{fill:#0A0A0A;}
	.st3{fill:#FFFFFF;}
</style>
<g id="row1_1_" class="st0">
	<g id="_x36__2_" class="st1">
		<g id="plus_transparent">
			<g>
				<path class="st2" d="M25.6-31.9c-35.3,0-64,28.5-64,63.7s28.7,63.7,64,63.7s64-28.5,64-63.7S60.9-31.9,25.6-31.9z M25.6,89.1
					C-6.2,89.1-32,63.5-32,31.8s25.8-57.3,57.6-57.3S83.2,0.2,83.2,31.8C83.2,63.5,57.4,89.1,25.6,89.1z M46.4,28.6H32V14.3
					c0-2.6-2.2-4.8-4.8-4.8c-2.7,0-4.8,2.1-4.8,4.8v14.3H8c-2.7,0-4.8,2.1-4.8,4.8c0,2.6,2.1,4.8,4.8,4.8h14.4v14.3
					c0,2.6,2.1,4.8,4.8,4.8c2.6,0,4.8-2.1,4.8-4.8V38.2h14.4c2.6,0,4.8-2.1,4.8-4.8C51.2,30.8,49.1,28.6,46.4,28.6z"/>
			</g>
		</g>
	</g>
	<g id="_x35__2_" class="st1">
		<g id="error_transparent_copy">
			<g>
				<path class="st2" d="M25.6-31.9c-35.3,0-64,28.5-64,63.7s28.7,63.7,64,63.7s64-28.5,64-63.7S60.9-31.9,25.6-31.9z M25.6,89.1
					C-6.2,89.1-32,63.5-32,31.8s25.8-57.3,57.6-57.3S83.2,0.2,83.2,31.8C83.2,63.5,57.4,89.1,25.6,89.1z M48.8,12.3
					c-0.9-0.9-2.3-0.9-3.2,0L16.8,41L3,27.3c-0.9-0.9-2.3-0.9-3.2,0L-5,32.1c-0.9,0.9-0.9,2.3,0,3.2l15.3,15.3l0,0l3.3,3.3l0.8,0.8
					l0,0l0.7,0.7c0.9,0.9,2.3,0.9,3.2,0l35.3-35.1c0.9-0.9,0.9-2.3,0-3.2L48.8,12.3z"/>
			</g>
		</g>
	</g>
	<g id="_x34__2_" class="st1">
		<g id="error_transparent">
			<g>
				<path class="st2" d="M25.6-31.9c-35.3,0-64,28.5-64,63.7s28.7,63.7,64,63.7s64-28.5,64-63.7S60.9-31.9,25.6-31.9z M25.6,89.1
					C-6.2,89.1-32,63.5-32,31.8s25.8-57.3,57.6-57.3S83.2,0.2,83.2,31.8C83.2,63.5,57.4,89.1,25.6,89.1z M47.5,15.9l-4.9-4.8
					c-0.9-0.9-2.3-0.9-3.2,0L25.6,24.8L11.8,11.1c-0.9-0.9-2.3-0.9-3.2,0l-4.9,4.8c-0.9,0.9-0.9,2.3,0,3.2l13.8,13.7L3.7,46.6
					c-0.9,0.9-0.9,2.3,0,3.2l4.9,4.8c0.9,0.9,2.3,0.9,3.2,0l13.8-13.7l13.8,13.7c0.9,0.9,2.3,0.9,3.2,0l4.9-4.8
					c0.9-0.9,0.9-2.3,0-3.2L33.7,32.8l13.8-13.7C48.4,18.2,48.4,16.8,47.5,15.9z"/>
			</g>
		</g>
	</g>
	<g id="_x33__2_" class="st1">
		<g id="alert_transparent">
			<g>
				<path class="st2" d="M25.6,0c-4.4,0-8,3.3-8,7.3v24.8c0,4.1,3.6,7.3,8,7.3s8-3.3,8-7.3V7.3C33.6,3.2,30,0,25.6,0z M25.6-31.9
					c-35.3,0-64,28.5-64,63.7s28.7,63.7,64,63.7s64-28.5,64-63.7S60.9-31.9,25.6-31.9z M25.6,89.1C-6.2,89.1-32,63.5-32,31.8
					s25.8-57.3,57.6-57.3S83.2,0.2,83.2,31.8C83.2,63.5,57.4,89.1,25.6,89.1z M25.6,49c-4.4,0-8,3.3-8,7.3s3.6,7.3,8,7.3
					s8-3.3,8-7.3S30,49,25.6,49z"/>
			</g>
		</g>
	</g>
	<g id="_x32__3_" class="st1">
		<g id="minus_transparent">
			<g>
				<path class="st2" d="M25.6-31.9c-35.3,0-64,28.5-64,63.7s28.7,63.7,64,63.7s64-28.5,64-63.7S60.9-31.9,25.6-31.9z M25.6,89.1
					C-6.2,89.1-32,63.5-32,31.8s25.8-57.3,57.6-57.3S83.2,0.2,83.2,31.8C83.2,63.5,57.4,89.1,25.6,89.1z M43.2,28.6H4.8
					c-2.7,0-4.8,2.1-4.8,4.8c0,2.6,2.2,4.8,4.8,4.8h38.4c2.6,0,4.8-2.1,4.8-4.8C48,30.8,45.9,28.6,43.2,28.6z"/>
			</g>
		</g>
	</g>
	<g id="_x31__3_" class="st1">
		<g id="_x32__2_">
			<g>
				<path class="st2" d="M25.6-32.2c-35.3,0-64,28.7-64,64s28.7,64,64,64s64-28.7,64-64S60.9-32.2,25.6-32.2z M25.6,89.4
					C-6.2,89.4-32,63.6-32,31.8s25.8-57.6,57.6-57.6S83.2,0,83.2,31.8S57.4,89.4,25.6,89.4z M10.8,6.2l24.4,25.6L10.8,57.4h13.5
					L48,31.8L24.3,6.2H10.8z"/>
			</g>
		</g>
	</g>
</g>
<path class="st3" d="M0,26.7v7.1c0,2.2,1.8,3.9,3.9,3.9l15.3-12.2v28.7c0,2.2,2.3,3.2,4.4,3.2h4c2.2,0,3.9-1.8,3.9-3.9V25l15.8,12.7
	c2.2,0,3.9-1.8,3.9-3.9v-7.1L25.6,0L0,26.7z"/>
</svg>
